{"title":"Party Monster [2003]","uid":12112189,"size":3393530248,"categoryP":"video","categoryS":"movies","magnet":"?xt=urn:btih:23db66d549ea819cab10c0c942a0ad6a3b9c9e42&amp;dn=Party+Monster+%5B2003%5D&amp;tr=udp%3A%2F%2Ftracker.openbittorrent.com%3A80&amp;tr=udp%3A%2F%2Fopen.demonii.com%3A1337&amp;tr=udp%3A%2F%2Ftracker.coppersurfer.tk%3A6969&amp;tr=udp%3A%2F%2Fexodus.desync.com%3A6969","seeders":1,"leechers":0,"uploader":null,"files":1,"time":1436604791,"description":"Format                      : Matroska\nFormat version              : Version 2\nFile size                   : 3.16 GiB\nDuration                    : 1h 38mn\nOverall bit rate            : 4 585 Kbps\n\nVideo\nID                          : 1\nFormat                      : MPEG Video\nFormat version              : Version 2\nFormat profile              : Main@Main\nFormat settings, BVOP       : Yes\nFormat settings, Matrix     : Default\nFormat settings, GOP        : M=3, N=13\nFormat settings, picture st : Frame\nCodec ID                    : V_MPEG2\nCodec ID/Info               : MPEG 1 or 2 Video\nDuration                    : 1h 38mn\nBit rate                    : 3 918 Kbps\nMaximum bit rate            : 8 400 Kbps\nWidth                       : 720 pixels\nHeight                      : 480 pixels\nDisplay aspect ratio        : 16:9\nOriginal display aspect rat : 2.40:1\nFrame rate mode             : Constant\nFrame rate                  : 29.970 fps\nStandard                    : NTSC\nColor space                 : YUV\nChroma subsampling          : 4:2:0\nBit depth                   : 8 bits\nScan type                   : Interlaced\nScan order                  : Top Field First\nCompression mode            : Lossy\nBits/(Pixel*Frame)          : 0.378\nTime code of first frame    : 00:00:00:00\nTime code source            : Group of pictures header\nGOP, Open/Closed            : Closed\nStream size                 : 2.70 GiB (85%)\nLanguage                    : English\nDefault                     : No\nForced                      : No\nColor primaries             : BT.601 NTSC\nTransfer characteristics    : BT.601\nMatrix coefficients         : BT.601\n\nAudio #1\nID                          : 2\nFormat                      : AC-3\nFormat/Info                 : Audio Coding 3\nFormat profile              : Dolby Digital\nMode extension              : CM (complete main)\nFormat settings, Endianness : Big\nCodec ID                    : A_AC3\nDuration                    : 1h 38mn\nBit rate mode               : Constant\nBit rate                    : 192 Kbps\nChannel(s)                  : 2 channels\nChannel positions           : Front: L R\nSampling rate               : 48.0 KHz\nCompression mode            : Lossy\nStream size                 : 136 MiB (4%)\nTitle                       : Stereo\nLanguage                    : English\nDefault                     : Yes\nForced                      : No\n\nAudio #2\nID                          : 3\nFormat                      : AC-3\nFormat/Info                 : Audio Coding 3\nFormat profile              : Dolby Digital\nMode extension              : CM (complete main)\nFormat settings, Endianness : Big\nCodec ID                    : A_AC3\nDuration                    : 1h 38mn\nBit rate mode               : Constant\nBit rate                    : 192 Kbps\nChannel(s)                  : 2 channels\nChannel positions           : Front: L R\nSampling rate               : 48.0 KHz\nCompression mode            : Lossy\nStream size                 : 136 MiB (4%)\nTitle                       : Stereo\nLanguage                    : Spanish\nDefault                     : No\nForced                      : No\n\nAudio #3\nID                          : 4\nFormat                      : AC-3\nFormat/Info                 : Audio Coding 3\nFormat profile              : Dolby Digital\nMode extension              : CM (complete main)\nFormat settings, Endianness : Big\nCodec ID                    : A_AC3\nDuration                    : 1h 38mn\nBit rate mode               : Constant\nBit rate                    : 192 Kbps\nChannel(s)                  : 2 channels\nChannel positions           : Front: L R\nSampling rate               : 48.0 KHz\nCompression mode            : Lossy\nStream size                 : 136 MiB (4%)\nTitle                       : Stereo\nLanguage                    : English\nDefault                     : No\nForced                      : No\n\nMenu\n00:00:00.000                : en:Chapter 01\n00:03:36.783                : en:Chapter 02\n00:07:50.536                : en:Chapter 03\n00:12:22.074                : en:Chapter 04\n00:16:08.500                : en:Chapter 05\n00:20:27.025                : en:Chapter 06\n00:23:06.218                : en:Chapter 07\n00:27:54.673                : en:Chapter 08\n00:31:23.748                : en:Chapter 09\n00:35:52.250                : en:Chapter 10\n00:40:42.440                : en:Chapter 11\n00:44:19.757                : en:Chapter 12\n00:46:46.804                : en:Chapter 13\n00:53:41.051                : en:Chapter 14\n00:56:24.581                : en:Chapter 15\n00:59:20.690                : en:Chapter 16\n01:04:46.883                : en:Chapter 17\n01:08:06.849                : en:Chapter 18\n01:12:32.314                : en:Chapter 19\n01:16:36.091                : en:Chapter 20\n01:21:05.894                : en:Chapter 21\n01:23:40.749                : en:Chapter 22\n01:27:44.525                : en:Chapter 23\n01:33:42.817                : en:Chapter 24","torrent":{"xt":"urn:btih:23db66d549ea819cab10c0c942a0ad6a3b9c9e42","amp;dn":"Party+Monster+%5B2003%5D","amp;tr":["udp%3A%2F%2Ftracker.openbittorrent.com%3A80","udp%3A%2F%2Fopen.demonii.com%3A1337","udp%3A%2F%2Ftracker.coppersurfer.tk%3A6969","udp%3A%2F%2Fexodus.desync.com%3A6969"],"infoHash":"23db66d549ea819cab10c0c942a0ad6a3b9c9e42","infoHashBuffer":{"type":"Buffer","data":[35,219,102,213,73,234,129,156,171,16,192,201,66,160,173,106,59,156,158,66]},"announce":[],"urlList":[]}}